<?xml version="1.0" encoding="utf-8"?>
<!-- Generated by IcoMoon.io -->
<!DOCTYPE svg PUBLIC "-//W3C//DTD SVG 1.1//EN" "http://www.w3.org/Graphics/SVG/1.1/DTD/svg11.dtd">
<svg version="1.1" xmlns="http://www.w3.org/2000/svg" xmlns:xlink="http://www.w3.org/1999/xlink" width="367" height="512" viewBox="0 0 367 512">
<path d="M121.811 78.266c-26.437 28.391-19.141 73.734-19.141 73.734s26.984 32 80 32c53.016 0 80.016-32 80.016-32s7.188-44.734-18.688-73.156c16.188-9.016 25.719-22.047 21.781-30.906-4.469-9.985-24.188-10.875-44.125-1.984-7.406 3.297-13.719 7.484-18.625 11.938-6.219-1.125-12.813-1.891-20.36-1.891-7.030 0-13.28 0.672-19.172 1.625-4.828-4.375-11.031-8.438-18.266-11.672-19.938-8.859-39.688-7.969-44.125 1.984-3.874 8.672 5.142 21.343 20.704 30.328zM322.373 284.875c-4.125-0.875-8.063-1.375-11.875-1.75 0-1.063 0.188-2.063 0.188-3.156 0-16.797-2.375-32.827-6.219-48.063 8.219 0.703 18.688-1.188 29.281-5.889 19.938-8.891 32.5-24.188 28.063-34.109-4.438-9.984-24.188-10.875-44.125-1.984-9.313 4.156-16.906 9.734-22 15.453-3.875-9.125-8.25-17.891-13.406-25.859-15.094 12.578-43.656 31.359-83.531 35.531v160.89c0 0-0.125 16-16.016 16-15.875 0-16-16-16-16v-160.828c-39.906-4.172-68.484-22.984-83.546-35.531-4.938 7.656-9.188 16-12.969 24.672-5.141-5.313-12.313-10.422-20.984-14.297-19.938-8.859-39.688-7.969-44.125 1.984-4.453 9.953 8.125 25.219 28.063 34.109 9.922 4.423 19.766 6.406 27.734 6.048-3.828 15.202-6.234 31.172-6.234 47.906 0 1.094 0.188 2.125 0.219 3.25-3.359 0.375-6.844 0.875-10.39 1.625-25.985 5.375-45.891 18.813-44.422 29.906 1.469 11.156 23.75 15.75 49.797 10.344 3.391-0.688 6.719-1.563 9.891-2.531 4.578 20.404 11.906 39.342 22.047 55.654-6.016 3.031-12.266 7.5-18.016 13.313-15.938 15.938-22.406 35.313-14.438 43.281 7.969 7.969 27.328 1.5 43.266-14.406 4.672-4.688 8.422-9.625 11.328-14.5 21.766 21.312 49.032 34.062 78.782 34.062 30.172 0 57.891-13.125 79.766-34.969 2.938 5.156 6.875 10.406 11.813 15.344 15.906 15.938 35.313 22.406 43.281 14.438s1.5-27.313-14.438-43.25c-6.156-6.188-12.844-10.875-19.219-13.969 10.063-16.25 17.313-35.188 21.844-55.531 3.594 1.125 7.344 2.188 11.281 3.031 26.031 5.406 48.313 0.781 49.813-10.344 1.406-11.062-18.5-24.5-44.5-29.875z" fill="#bbb"></path>
</svg>
